<?xml version="1.0" encoding="UTF-8" standalone="no"?>
<!-- Created with Inkscape (http://www.inkscape.org/) -->

<svg
   xmlns:dc="http://purl.org/dc/elements/1.1/"
   xmlns:cc="http://creativecommons.org/ns#"
   xmlns:rdf="http://www.w3.org/1999/02/22-rdf-syntax-ns#"
   xmlns:svg="http://www.w3.org/2000/svg"
   xmlns="http://www.w3.org/2000/svg"
   xmlns:sodipodi="http://sodipodi.sourceforge.net/DTD/sodipodi-0.dtd"
   xmlns:inkscape="http://www.inkscape.org/namespaces/inkscape"
   id="svg8"
   version="1.1"
   viewBox="0 0 26.722919 26.722912"
   height="26.722912mm"
   width="26.722919mm"
   inkscape:version="0.92.2 5c3e80d, 2017-08-06"
   sodipodi:docname="von-neumann-neighbourhood.svg">
  <defs
     id="defs2" />
  <sodipodi:namedview
     inkscape:window-maximized="1"
     inkscape:window-y="1"
     inkscape:window-x="0"
     inkscape:window-height="799"
     inkscape:window-width="1440"
     showgrid="false"
     inkscape:current-layer="layer1"
     inkscape:document-units="mm"
     inkscape:cy="-26.937766"
     inkscape:cx="38.867212"
     inkscape:zoom="1.8101934"
     inkscape:pageshadow="2"
     inkscape:pageopacity="0.0"
     borderopacity="1.0"
     bordercolor="#666666"
     pagecolor="#ffffff"
     id="base"
     inkscape:snap-intersection-paths="true"
     fit-margin-top="0"
     fit-margin-left="0"
     fit-margin-right="0"
     fit-margin-bottom="0" />
  <metadata
     id="metadata5">
    <rdf:RDF>
      <cc:Work
         rdf:about="">
        <dc:format>image/svg+xml</dc:format>
        <dc:type
           rdf:resource="http://purl.org/dc/dcmitype/StillImage" />
        <dc:title></dc:title>
      </cc:Work>
    </rdf:RDF>
  </metadata>
  <g
     inkscape:label="Layer 1"
     inkscape:groupmode="layer"
     id="layer1"
     transform="translate(-84.534372,-216.82604)">
    <rect
       style="fill:#ffffff;fill-opacity:1;stroke:none;stroke-width:0.26458332"
       id="rect4776"
       width="26.458336"
       height="26.458328"
       x="84.666664"
       y="216.95833" />
    <path
       style="fill:#ff2525;fill-opacity:1;stroke:#000000;stroke-width:0.28659612"
       d="m 360.71772,869.97899 v -9.45767 h 9.31437 9.31437 v 9.45767 9.45768 h -9.31437 -9.31437 z"
       id="path272"
       inkscape:connector-curvature="0"
       transform="scale(0.26458333)" />
    <path
       style="fill:#00ffff;stroke:#000000;stroke-width:0.28659612"
       d="m 340.65599,869.97899 v -9.45767 h 9.31437 9.31438 v 9.45767 9.45768 h -9.31438 -9.31437 z"
       id="path274"
       inkscape:connector-curvature="0"
       transform="scale(0.26458333)" />
    <path
       style="fill:#00ffff;stroke:#000000;stroke-width:0.28659612"
       d="m 360.71772,850.06056 v -9.31437 h 9.31437 9.31437 v 9.31437 9.31438 h -9.31437 -9.31437 z"
       id="path276"
       inkscape:connector-curvature="0"
       transform="scale(0.26458333)" />
    <path
       style="fill:#00ffff;stroke:#000000;stroke-width:0.28659612"
       d="m 380.49285,869.97899 v -9.45767 h 9.45767 9.45767 v 9.45767 9.45768 h -9.45767 -9.45767 z"
       id="path278"
       inkscape:connector-curvature="0"
       transform="scale(0.26458333)" />
    <path
       style="fill:#00ffff;stroke:#000000;stroke-width:0.28659612"
       d="m 360.71772,890.04072 v -9.45767 h 9.31437 9.31437 v 9.45767 9.45768 h -9.31437 -9.31437 z"
       id="path280"
       inkscape:connector-curvature="0"
       transform="scale(0.26458333)" />
  </g>
  <path
     d="M -84.534372,-216.82604 V 80.173953 m 5.291666,-296.999993 V 80.173953 m 5.291667,-296.999993 V 80.173953 m 5.291667,-296.999993 V 80.173953 m 5.291666,-296.999993 V 80.173953 m 5.291667,-296.999993 V 80.173953 m 5.291666,-296.999993 V 80.173953 m 5.291667,-296.999993 V 80.173953 M -42.20104,-216.82604 V 80.173953 m 5.291667,-296.999993 V 80.173953 m 5.291666,-296.999993 V 80.173953 M -26.32604,-216.82604 V 80.173953 m 5.291667,-296.999993 V 80.173953 m 5.291666,-296.999993 V 80.173953 M -10.45104,-216.82604 V 80.173953 M -5.1593745,-216.82604 V 80.173953 M 0.13229254,-216.82604 V 80.173953 M 5.4239585,-216.82604 V 80.173953 M 10.715626,-216.82604 V 80.173953 M 16.007288,-216.82604 V 80.173953 m 5.29167,-296.999993 V 80.173953 m 5.29167,-296.999993 V 80.173953 m 5.29166,-296.999993 V 80.173953 m 5.29167,-296.999993 V 80.173953 m 5.29167,-296.999993 V 80.173953 m 5.29166,-296.999993 V 80.173953 m 5.29167,-296.999993 V 80.173953 m 5.29167,-296.999993 V 80.173953 m 5.29166,-296.999993 V 80.173953 m 5.29167,-296.999993 V 80.173953 m 5.29167,-296.999993 V 80.173953 m 5.29166,-296.999993 V 80.173953 m 5.29167,-296.999993 V 80.173953 m 5.29167,-296.999993 V 80.173953 m 5.29166,-296.999993 V 80.173953 M 100.67396,-216.82604 V 80.173953 m 5.29167,-296.999993 V 80.173953 m 5.29166,-296.999993 V 80.173953 m 5.29167,-296.999993 V 80.173953 m 5.29167,-296.999993 V 80.173953 M -84.534372,-216.82604 H 125.46563 m -210.000002,5.29167 H 125.46563 m -210.000002,5.29167 H 125.46563 m -210.000002,5.29166 H 125.46563 m -210.000002,5.29167 H 125.46563 m -210.000002,5.29167 H 125.46563 m -210.000002,5.29166 H 125.46563 m -210.000002,5.29167 H 125.46563 m -210.000002,5.29167 H 125.46563 m -210.000002,5.29166 H 125.46563 m -210.000002,5.29167 H 125.46563 m -210.000002,5.29167 H 125.46563 m -210.000002,5.29166 H 125.46563 m -210.000002,5.29167 H 125.46563 m -210.000002,5.29167 H 125.46563 m -210.000002,5.29166 H 125.46563 m -210.000002,5.29167 H 125.46563 m -210.000002,5.29166 H 125.46563 m -210.000002,5.29167 H 125.46563 m -210.000002,5.29166 H 125.46563 m -210.000002,5.29167 H 125.46563 m -210.000002,5.29167 H 125.46563 m -210.000002,5.29166 H 125.46563 m -210.000002,5.291673 H 125.46563 m -210.000002,5.29167 H 125.46563 m -210.000002,5.29166 H 125.46563 m -210.000002,5.29167 H 125.46563 m -210.000002,5.29167 H 125.46563 m -210.000002,5.29166 H 125.46563 m -210.000002,5.29167 H 125.46563 m -210.000002,5.29167 H 125.46563 m -210.000002,5.29166 H 125.46563 m -210.000002,5.29167 H 125.46563 m -210.000002,5.29167 H 125.46563 m -210.000002,5.29166 H 125.46563 m -210.000002,5.29167 H 125.46563 m -210.000002,5.29167 H 125.46563 m -210.000002,5.29166 H 125.46563 m -210.000002,5.29167 H 125.46563 m -210.000002,5.29167 H 125.46563 M -84.534372,-5.1593766 H 125.46563 M -84.534372,0.13229341 H 125.46563 M -84.534372,5.4239534 H 125.46563 M -84.534372,10.715623 H 125.46563 m -210.000002,5.29167 H 125.46563 m -210.000002,5.29166 H 125.46563 m -210.000002,5.29167 H 125.46563 m -210.000002,5.29167 H 125.46563 m -210.000002,5.29166 H 125.46563 m -210.000002,5.29167 H 125.46563 m -210.000002,5.29167 H 125.46563 m -210.000002,5.29166 H 125.46563 m -210.000002,5.29167 H 125.46563 m -210.000002,5.29167 H 125.46563 m -210.000002,5.29166 H 125.46563 m -210.000002,5.29167 H 125.46563 m -210.000002,5.29167 H 125.46563"
     style="fill:none;stroke:#000000;stroke-width:0.26458299px"
     id="path270"
     inkscape:connector-curvature="0" />
</svg>
